<svg width="37" height="40" viewBox="0 0 37 40" fill="none" xmlns="http://www.w3.org/2000/svg">
<g clip-path="url(#clip0_50_60)">
<path d="M30.846 29.7666C30.5513 27.4882 29.9654 25.5957 29.0882 24.089C28.2109 22.5823 26.9754 21.7113 25.3817 21.4761C24.4844 22.5639 23.4163 23.4128 22.1775 24.0228C20.9386 24.6328 19.6295 24.9379 18.25 24.9379C16.8705 24.9379 15.5614 24.6328 14.3225 24.0228C13.0837 23.4128 12.0156 22.5639 11.1183 21.4761C9.52455 21.7113 8.28906 22.5823 7.41183 24.089C6.5346 25.5957 5.94866 27.4882 5.65402 29.7666C7.07366 31.9716 8.88839 33.7171 11.0982 35.0033C13.308 36.2895 15.692 36.9326 18.25 36.9326C20.808 36.9326 23.192 36.2895 25.4018 35.0033C27.6116 33.7171 29.4263 31.9716 30.846 29.7666ZM25.9643 14.3542C25.9643 12.017 25.2109 10.0216 23.7042 8.36787C22.1975 6.71418 20.3795 5.88734 18.25 5.88734C16.1205 5.88734 14.3025 6.71418 12.7958 8.36787C11.2891 10.0216 10.5357 12.017 10.5357 14.3542C10.5357 16.6915 11.2891 18.6869 12.7958 20.3406C14.3025 21.9943 16.1205 22.8211 18.25 22.8211C20.3795 22.8211 22.1975 21.9943 23.7042 20.3406C25.2109 18.6869 25.9643 16.6915 25.9643 14.3542ZM36.25 19.9988C36.25 22.6741 35.7746 25.2282 34.8237 27.6609C33.8728 30.0937 32.5971 32.1957 30.9967 33.967C29.3962 35.7383 27.4844 37.1458 25.2612 38.1894C23.0379 39.2331 20.7009 39.7549 18.25 39.7549C15.8125 39.7549 13.4821 39.2331 11.2589 38.1894C9.03571 37.1458 7.12054 35.742 5.51339 33.978C3.90625 32.2141 2.62723 30.1121 1.67634 27.672C0.725446 25.2318 0.25 22.6741 0.25 19.9988C0.25 17.3235 0.725446 14.7658 1.67634 12.3257C2.62723 9.88559 3.90625 7.78357 5.51339 6.01963C7.12054 4.25569 9.03571 2.85189 11.2589 1.80823C13.4821 0.764568 15.8125 0.242737 18.25 0.242737C20.6875 0.242737 23.0179 0.764568 25.2411 1.80823C27.4643 2.85189 29.3795 4.25569 30.9866 6.01963C32.5938 7.78357 33.8728 9.88559 34.8237 12.3257C35.7746 14.7658 36.25 17.3235 36.25 19.9988Z" fill="black"/>
</g>
<defs>
<clipPath id="clip0_50_60">
<rect width="36" height="39.5122" fill="white" transform="translate(0.25 0.242737)"/>
</clipPath>
</defs>
</svg>
